<?xml version="1.0" encoding="UTF-8" standalone="no"?>
<svg
   xmlns:dc="http://purl.org/dc/elements/1.1/"
   xmlns:cc="http://creativecommons.org/ns#"
   xmlns:rdf="http://www.w3.org/1999/02/22-rdf-syntax-ns#"
   xmlns:svg="http://www.w3.org/2000/svg"
   xmlns="http://www.w3.org/2000/svg"
   xmlns:sodipodi="http://sodipodi.sourceforge.net/DTD/sodipodi-0.dtd"
   xmlns:inkscape="http://www.inkscape.org/namespaces/inkscape"
   width="130.06889mm"
   height="28.194666mm"
   viewBox="0 0 130.06889 28.194666"
   version="1.1"
   id="svg820"
   inkscape:version="1.0 (4035a4fb49, 2020-05-01)"
   sodipodi:docname="wizaviu2.svg">
  <defs
     id="defs814" />
  <sodipodi:namedview
     id="base"
     pagecolor="#ffffff"
     bordercolor="#666666"
     borderopacity="1.0"
     inkscape:pageopacity="0.0"
     inkscape:pageshadow="2"
     inkscape:zoom="0.35"
     inkscape:cx="268.65663"
     inkscape:cy="216.1384"
     inkscape:document-units="mm"
     inkscape:current-layer="layer1"
     inkscape:document-rotation="0"
     showgrid="false"
     fit-margin-top="0"
     fit-margin-left="0"
     fit-margin-right="0"
     fit-margin-bottom="0"
     inkscape:window-width="1657"
     inkscape:window-height="1020"
     inkscape:window-x="190"
     inkscape:window-y="0"
     inkscape:window-maximized="0" />
  <metadata
     id="metadata817">
    <rdf:RDF>
      <cc:Work
         rdf:about="">
        <dc:format>image/svg+xml</dc:format>
        <dc:type
           rdf:resource="http://purl.org/dc/dcmitype/StillImage" />
        <dc:title />
      </cc:Work>
    </rdf:RDF>
  </metadata>
  <g
     inkscape:label="Layer 1"
     inkscape:groupmode="layer"
     id="layer1"
     transform="translate(-34.751265,-90.980048)">
    <g
       inkscape:export-ydpi="96"
       inkscape:export-xdpi="96"
       id="g791"
       transform="matrix(0.3527778,0,0,0.3527778,4.7927131,-49.079628)">
      <path
         id="path279"
         d="m 143.34375,438.44531 v -41.375 h -30.28516 v 41.375 l 15.10938,-18.92578 z m 0,0"
         style="fill:#1185b0;fill-opacity:1;fill-rule:nonzero;stroke:none" />
      <path
         id="path281"
         d="m 93.445313,397.01953 h -8.523438 v 39.96094 h 8.523438 v -31.4375 h 15.191407 v -8.52344 z m 0,0"
         style="fill:#1185b0;fill-opacity:1;fill-rule:nonzero;stroke:none" />
      <path
         id="path283"
         d="m 162.95703,441.37891 v 27.03906 h -18.91797 l -15.67969,-19.80469 -15.68359,19.80469 H 93.441406 v -27.03906 h -8.519531 v 35.5625 h 86.558595 v -35.5625 z m 0,0"
         style="fill:#1185b0;fill-opacity:1;fill-rule:nonzero;stroke:none" />
      <path
         id="path285"
         d="m 171.47656,397.01953 h -23.71094 v 8.51953 h 15.19141 v 31.44141 h 8.51953 z m 0,0"
         style="fill:#1185b0;fill-opacity:1;fill-rule:nonzero;stroke:none" />
      <path
         id="path287"
         d="m 374.02344,413.40625 -7.35938,26.08594 -7.36328,-26.08594 h -13.30469 l 12.91797,45.75 h 15.5 l 12.91797,-45.75 z m 0,0"
         style="fill:#1185b0;fill-opacity:1;fill-rule:nonzero;stroke:none" />
      <path
         id="path289"
         d="m 440.84766,413.40625 v 26.73828 c -0.17579,4.87891 -4.10938,8.79297 -9,8.93359 v 0.008 c -0.043,0 -0.0899,-0.004 -0.13282,-0.004 -0.0469,0 -0.0898,0.004 -0.13672,0.004 v -0.008 c -4.88671,-0.14062 -8.82421,-4.05468 -9,-8.93359 v -26.73828 h -12.76953 v 25.33594 c 0.17578,11.91015 9.71485,21.54687 21.58203,21.88672 v 0.0156 c 0.10938,0 0.21485,-0.008 0.32422,-0.008 0.10938,0 0.21485,0.008 0.32032,0.008 v -0.0156 c 11.875,-0.33985 21.41015,-9.97657 21.58593,-21.88672 v -25.33594 z m 0,0"
         style="fill:#1185b0;fill-opacity:1;fill-rule:nonzero;stroke:none" />
      <path
         id="path291"
         d="m 391.83984,413.40625 v 45.82031 h 12.0586 v -45.82031 z m 0,0"
         style="fill:#1185b0;fill-opacity:1;fill-rule:nonzero;stroke:none" />
      <path
         id="path293"
         d="m 247.55469,432.1875 v 27.03906 h 12.93359 V 432.1875 Z m 0,0"
         style="fill:#0c638c;fill-opacity:1;fill-rule:nonzero;stroke:none" />
      <path
         id="path295"
         d="m 352.04687,458.92578 -12.71093,-45.02344 h -15.25391 l -12.71484,45.02344 h 13.09765 l 7.24219,-25.67578 7.24609,25.67578 z m 0,0"
         style="fill:#0c638c;fill-opacity:1;fill-rule:nonzero;stroke:none" />
      <path
         id="path297"
         d="m 308.43359,413.78906 h -39.34375 v 12.59766 h 17.27344 v -0.0234 h 4.87891 l -22.15235,20.03906 v 12.59375 h 39.34375 v -12.59375 h -21.58203 l 21.58203,-20.03906 z m 0,0"
         style="fill:#0c638c;fill-opacity:1;fill-rule:nonzero;stroke:none" />
      <path
         id="path299"
         d="m 190.70312,458.78516 v -44.90625 h 13.27735 v 22.18359 l 10.5,-13.14844 10.5,13.14844 0.0469,-22.18359 h 13.27735 v 45.04687 l -13.27735,-0.0234 -10.4375,-14.6875 -10.60937,14.6875 z m 0,0"
         style="fill:#0c638c;fill-opacity:1;fill-rule:nonzero;stroke:none" />
      <path
         id="path301"
         d="m 261.21875,420.50781 c 0,3.97656 -3.22266,7.19922 -7.19531,7.19922 -3.97657,0 -7.19922,-3.22266 -7.19922,-7.19922 0,-3.97265 3.22265,-7.19531 7.19922,-7.19531 3.97265,0 7.19531,3.22266 7.19531,7.19531"
         style="fill:#d92617;fill-opacity:1;fill-rule:nonzero;stroke:none" />
    </g>
  </g>
</svg>
