<?xml version="1.0" standalone="no"?>
<!DOCTYPE svg PUBLIC "-//W3C//DTD SVG 20010904//EN"
 "http://www.w3.org/TR/2001/REC-SVG-20010904/DTD/svg10.dtd">
<svg version="1.0" xmlns="http://www.w3.org/2000/svg"
 width="64.000000pt" height="64.000000pt" viewBox="0 0 64.000000 64.000000"
 preserveAspectRatio="xMidYMid meet">

<g transform="translate(0.000000,64.000000) scale(0.100000,-0.100000)"
fill="#000000" stroke="none">
<path d="M134 609 c-16 -17 -20 -40 -22 -125 -3 -73 -8 -106 -18 -115 -18 -15
-19 -108 0 -134 8 -12 15 -55 17 -103 6 -121 7 -122 209 -122 209 0 204 -3
208 151 3 79 8 116 18 126 18 19 18 54 -1 79 -19 26 -19 56 2 92 17 29 17 32
-5 75 -12 24 -22 49 -22 55 0 6 -10 18 -22 26 -18 13 -54 16 -184 16 -151 0
-162 -1 -180 -21z m358 -6 c17 -15 18 -37 18 -284 0 -265 0 -268 -22 -283 -34
-24 -314 -23 -340 1 -17 15 -18 37 -18 281 0 233 2 268 17 284 14 16 34 18
171 18 131 0 158 -3 174 -17z"/>
<path d="M236 564 c-20 -19 -22 -144 -4 -162 7 -7 43 -12 90 -12 92 0 98 6 98
99 0 80 -12 91 -100 91 -49 0 -73 -4 -84 -16z m118 -50 c23 -23 20 -51 -9 -70
-23 -15 -27 -15 -50 0 -14 9 -25 25 -25 36 0 24 26 50 50 50 10 0 26 -7 34
-16z"/>
<path d="M307 504 c-16 -16 -7 -44 14 -44 15 0 20 5 17 22 -3 22 -19 33 -31
22z"/>
<path d="M167 504 c-15 -15 -7 -45 11 -42 9 2 17 12 17 22 0 20 -16 31 -28 20z"/>
<path d="M444 495 c-7 -18 3 -35 21 -35 18 0 26 25 12 39 -15 15 -27 14 -33
-4z"/>
<path d="M267 356 c-8 -21 2 -26 55 -26 41 0 48 3 48 20 0 17 -7 20 -49 20
-33 0 -51 -5 -54 -14z"/>
<path d="M192 268 c-16 -16 -16 -150 0 -166 17 -17 239 -17 256 0 7 7 12 41
12 83 0 42 -5 76 -12 83 -17 17 -239 17 -256 0z m198 -88 c0 -30 -1 -30 -55
-30 -54 0 -55 0 -55 30 0 30 1 30 55 30 54 0 55 0 55 -30z m-133 -12 c-3 -7
-5 -2 -5 12 0 14 2 19 5 13 2 -7 2 -19 0 -25z"/>
</g>
</svg>
